<svg width="153" height="63" viewBox="0 0 153 63" fill="none" xmlns="http://www.w3.org/2000/svg">
<path d="M19.688 53.728C19.0053 53.728 18.664 53.152 18.664 52C18.6213 50.9333 18.6427 49.248 18.728 46.944C18.8133 44.64 18.856 42.0587 18.856 39.2C18.856 36.896 18.792 34.528 18.664 32.096C18.5787 29.6213 18.3653 27.2533 18.024 24.992C17.7253 22.688 17.2773 20.64 16.68 18.848C16.0827 17.056 15.2933 15.6267 14.312 14.56C13.3733 13.4933 12.2213 12.96 10.856 12.96C9.40533 12.96 8.12533 13.3227 7.016 14.048C5.94933 14.7307 4.94667 15.584 4.008 16.608C3.112 17.632 2.19467 18.6347 1.256 19.616C1 19.9147 0.829333 20 0.744 19.872C0.616 19.744 0.573333 19.5947 0.616 19.424C1 18.5707 1.64 17.6107 2.536 16.544C3.47467 15.4773 4.52 14.4747 5.672 13.536C6.86667 12.5547 8.08267 11.7653 9.32 11.168C10.6 10.528 11.752 10.208 12.776 10.208C14.3973 10.208 15.784 10.9547 16.936 12.448C18.088 13.9413 19.0053 15.9467 19.688 18.464C20.4133 20.9813 20.9253 23.8187 21.224 26.976C21.5653 30.0907 21.736 33.312 21.736 36.64C21.736 41.632 21.4373 46.3253 20.84 50.72C21.608 48.1173 22.5253 45.2373 23.592 42.08C24.6587 38.88 25.896 35.5733 27.304 32.16C28.712 28.704 30.2693 25.312 31.976 21.984C33.7253 18.656 35.624 15.5627 37.672 12.704C39.7627 9.80266 42.024 7.30666 44.456 5.216C46.9307 3.08267 49.5547 1.52533 52.328 0.543999C53.4373 0.202665 54.44 0.0319977 55.336 0.0319977C56.8293 0.0319977 58.1307 0.437331 59.24 1.248C60.392 2.016 61.096 3.18933 61.352 4.768V4.896C61.352 5.28 61.2667 5.664 61.096 6.048C60.968 6.432 60.8187 6.624 60.648 6.624C60.392 6.624 60.264 6.176 60.264 5.28C60.264 4.256 59.9867 3.38133 59.432 2.656C58.8773 1.888 57.96 1.504 56.68 1.504C55.912 1.504 54.9733 1.696 53.864 2.08C50.6213 3.18933 47.464 5.25867 44.392 8.288C41.3627 11.3173 38.4827 15.0507 35.752 19.488C33.0213 23.9253 30.4827 28.8747 28.136 34.336C25.7893 39.7547 23.6987 45.472 21.864 51.488C21.6933 52.0853 21.3733 52.5973 20.904 53.024C20.4773 53.4933 20.072 53.728 19.688 53.728ZM33.3415 51.488C32.5735 51.488 32.0188 51.168 31.6775 50.528C31.3362 49.8453 31.1655 49.056 31.1655 48.16C31.1655 47.008 31.3575 45.664 31.7415 44.128C32.1682 42.592 32.7228 41.0133 33.4055 39.392C34.0882 37.728 34.8562 36.2133 35.7095 34.848C36.6055 33.44 37.5442 32.3093 38.5255 31.456C39.5068 30.56 40.4668 30.112 41.4055 30.112C42.2588 30.112 42.9842 30.496 43.5815 31.264C44.2215 31.9893 44.5415 32.8213 44.5415 33.76C44.5415 34.3147 44.4562 34.784 44.2855 35.168C44.1148 35.5093 43.9228 35.68 43.7095 35.68C43.5388 35.68 43.3895 35.552 43.2615 35.296C42.8348 34.3147 42.3655 33.6107 41.8535 33.184C41.3842 32.7573 40.8935 32.544 40.3815 32.544C39.5282 32.544 38.6748 33.0347 37.8215 34.016C37.0108 34.9547 36.3495 36.0427 35.8375 37.28C35.4108 38.2187 35.0055 39.3493 34.6215 40.672C34.2802 41.952 33.9815 43.232 33.7255 44.512C33.5122 45.7493 33.4055 46.7733 33.4055 47.584C33.4055 49.0347 33.7468 49.76 34.4295 49.76C35.2828 49.76 36.3708 48.8213 37.6935 46.944C38.6748 45.5787 39.5495 44 40.3175 42.208C41.1282 40.416 41.8108 38.8587 42.3655 37.536C42.5788 37.1093 42.8135 36.832 43.0695 36.704C43.3255 36.576 43.5602 36.512 43.7735 36.512C44.2855 36.512 44.6055 36.7253 44.7335 37.152C44.9042 37.5787 44.9895 37.9413 44.9895 38.24C44.9895 39.3493 44.8828 40.352 44.6695 41.248C44.4562 42.1013 44.3495 43.1467 44.3495 44.384C44.3495 45.28 44.4135 46.112 44.5415 46.88C44.7122 47.6053 44.9895 47.968 45.3735 47.968C45.8428 47.968 46.4402 47.3707 47.1655 46.176C47.3362 45.8347 47.5922 45.664 47.9335 45.664C48.3175 45.664 48.5095 45.856 48.5095 46.24C48.5095 46.7947 48.1255 47.392 47.3575 48.032C46.5895 48.6293 45.8215 48.928 45.0535 48.928C44.0295 48.928 43.3042 48.5013 42.8775 47.648C42.1522 46.24 41.7895 44.9813 41.7895 43.872C41.7895 42.72 41.7682 41.9307 41.7255 41.504C41.5122 42.016 41.1068 42.8267 40.5095 43.936C39.9122 45.0027 39.2082 46.1333 38.3975 47.328C37.5868 48.48 36.7335 49.4613 35.8375 50.272C34.9415 51.0827 34.1095 51.488 33.3415 51.488ZM56.426 55.2C55.0607 55.2 54.0153 54.56 53.29 53.28C52.5647 52.0427 52.202 50.6773 52.202 49.184C52.202 47.776 52.4367 46.304 52.906 44.768C53.3753 43.232 53.9513 41.7173 54.634 40.224C55.3593 38.7307 56.106 37.3653 56.874 36.128C56.106 36.4267 55.3807 36.576 54.698 36.576C54.3567 36.576 54.058 36.5333 53.802 36.448C53.546 36.3627 53.3327 36.2987 53.162 36.256C52.9487 36.768 52.5647 37.6213 52.01 38.816C51.498 40.0107 50.9433 41.2693 50.346 42.592C49.7913 43.872 49.3007 44.96 48.874 45.856C48.1913 47.3067 47.594 48.032 47.082 48.032C46.826 48.032 46.698 47.8613 46.698 47.52C46.698 47.264 46.8047 46.9227 47.018 46.496C47.9993 44.6613 48.9167 42.848 49.77 41.056C50.666 39.264 51.4767 37.536 52.202 35.872C52.1167 35.6587 52.0313 35.3813 51.946 35.04C51.8607 34.656 51.818 34.2507 51.818 33.824C51.818 33.3547 51.8607 32.864 51.946 32.352C52.074 31.7973 52.2447 31.264 52.458 30.752C52.586 30.4533 52.8207 30.0267 53.162 29.472C53.5033 28.8747 53.8873 28.3413 54.314 27.872C54.7407 27.36 55.146 27.104 55.53 27.104C56.2553 27.104 56.618 27.488 56.618 28.256C56.618 28.9813 56.3833 29.8133 55.914 30.752C55.4873 31.6907 55.0393 32.5653 54.57 33.376C54.1007 34.144 53.866 34.72 53.866 35.104C53.866 35.4453 54.0367 35.616 54.378 35.616C54.8473 35.616 55.4233 35.3813 56.106 34.912C56.8313 34.4 57.4073 33.9307 57.834 33.504C58.0473 33.2907 58.3887 32.9707 58.858 32.544C59.3273 32.0747 59.7753 31.84 60.202 31.84C60.6287 31.84 60.906 31.968 61.034 32.224C61.2047 32.48 61.29 32.7787 61.29 33.12C61.29 33.504 61.1193 33.9947 60.778 34.592C60.4367 35.1467 60.0313 35.7013 59.562 36.256C59.1353 36.8107 58.7727 37.28 58.474 37.664C57.8767 38.56 57.194 39.6907 56.426 41.056C55.658 42.4213 54.9967 43.8933 54.442 45.472C53.8873 47.008 53.61 48.48 53.61 49.888C53.61 50.8267 53.8447 51.808 54.314 52.832C54.7833 53.856 55.4233 54.368 56.234 54.368C56.9593 54.368 57.7273 53.984 58.538 53.216C59.3913 52.448 60.1807 51.5307 60.906 50.464C61.674 49.3973 62.3353 48.3733 62.89 47.392C63.4873 46.4107 63.8927 45.728 64.106 45.344C64.1913 45.1307 64.3407 44.8747 64.554 44.576C64.7673 44.2347 65.0233 44.064 65.322 44.064C65.578 44.064 65.706 44.192 65.706 44.448C65.706 44.6613 65.642 44.9173 65.514 45.216C65.4287 45.472 65.3433 45.7067 65.258 45.92C64.874 46.816 64.4047 47.7547 63.85 48.736C63.2953 49.7173 62.9113 50.3787 62.698 50.72C62.1007 51.7013 61.2047 52.6827 60.01 53.664C58.858 54.688 57.6633 55.2 56.426 55.2ZM74.1435 62.176C73.5888 62.176 73.0555 61.9627 72.5435 61.536C72.0742 61.1093 71.6688 60.6827 71.3275 60.256C69.9622 58.6773 68.8102 56.5867 67.8715 53.984C66.9755 51.3813 66.2928 48.5227 65.8235 45.408C65.3542 42.2507 65.1195 39.0507 65.1195 35.808C65.1195 32.7787 65.3115 29.8347 65.6955 26.976C66.1222 24.1173 66.7622 21.5147 67.6155 19.168C68.4688 16.8213 69.5355 14.944 70.8155 13.536C72.4795 11.6587 74.0795 10.72 75.6155 10.72C76.5542 10.72 77.3008 11.1467 77.8555 12C78.4528 12.8107 78.7515 14.112 78.7515 15.904C78.7515 17.6107 78.4102 19.7867 77.7275 22.432C77.0875 25.0347 75.9782 28.1493 74.3995 31.776C73.8448 32.9707 73.2475 34.1653 72.6075 35.36C72.0102 36.5547 71.3702 37.8133 70.6875 39.136C70.4315 39.648 70.2182 39.904 70.0475 39.904C69.9622 39.904 69.9195 39.8187 69.9195 39.648C69.9195 39.3067 70.0688 38.8587 70.3675 38.304C74.2502 31.008 76.1915 23.7547 76.1915 16.544C76.1915 13.6853 75.5942 12.256 74.3995 12.256C73.5462 12.256 72.5435 13.088 71.3915 14.752C69.8128 17.0987 68.7248 19.8933 68.1275 23.136C67.5302 26.336 67.2315 29.5787 67.2315 32.864C67.2315 35.3387 67.3382 37.7493 67.5515 40.096C67.7648 42.4 68.0208 44.4907 68.3195 46.368C68.4475 47.1787 68.6395 48.2667 68.8955 49.632C69.1515 50.9973 69.4928 52.4267 69.9195 53.92C70.3462 55.456 70.8155 56.8427 71.3275 58.08C71.8822 59.36 72.4795 60.2773 73.1195 60.832C73.2902 60.96 73.4608 61.088 73.6315 61.216C73.8448 61.3867 74.0795 61.4933 74.3355 61.536C74.7195 61.536 74.9115 61.6427 74.9115 61.856C74.9115 62.0693 74.6555 62.176 74.1435 62.176ZM77.3415 51.488C76.5735 51.488 76.0188 51.168 75.6775 50.528C75.3362 49.8453 75.1655 49.056 75.1655 48.16C75.1655 47.008 75.3575 45.664 75.7415 44.128C76.1682 42.592 76.7228 41.0133 77.4055 39.392C78.0882 37.728 78.8562 36.2133 79.7095 34.848C80.6055 33.44 81.5442 32.3093 82.5255 31.456C83.5068 30.56 84.4668 30.112 85.4055 30.112C86.2588 30.112 86.9842 30.496 87.5815 31.264C88.2215 31.9893 88.5415 32.8213 88.5415 33.76C88.5415 34.3147 88.4562 34.784 88.2855 35.168C88.1148 35.5093 87.9228 35.68 87.7095 35.68C87.5388 35.68 87.3895 35.552 87.2615 35.296C86.8348 34.3147 86.3655 33.6107 85.8535 33.184C85.3842 32.7573 84.8935 32.544 84.3815 32.544C83.5282 32.544 82.6748 33.0347 81.8215 34.016C81.0108 34.9547 80.3495 36.0427 79.8375 37.28C79.4108 38.2187 79.0055 39.3493 78.6215 40.672C78.2802 41.952 77.9815 43.232 77.7255 44.512C77.5122 45.7493 77.4055 46.7733 77.4055 47.584C77.4055 49.0347 77.7468 49.76 78.4295 49.76C79.2828 49.76 80.3708 48.8213 81.6935 46.944C82.6748 45.5787 83.5495 44 84.3175 42.208C85.1282 40.416 85.8108 38.8587 86.3655 37.536C86.5788 37.1093 86.8135 36.832 87.0695 36.704C87.3255 36.576 87.5602 36.512 87.7735 36.512C88.2855 36.512 88.6055 36.7253 88.7335 37.152C88.9042 37.5787 88.9895 37.9413 88.9895 38.24C88.9895 39.3493 88.8828 40.352 88.6695 41.248C88.4562 42.1013 88.3495 43.1467 88.3495 44.384C88.3495 45.28 88.4135 46.112 88.5415 46.88C88.7122 47.6053 88.9895 47.968 89.3735 47.968C89.8428 47.968 90.4402 47.3707 91.1655 46.176C91.3362 45.8347 91.5922 45.664 91.9335 45.664C92.3175 45.664 92.5095 45.856 92.5095 46.24C92.5095 46.7947 92.1255 47.392 91.3575 48.032C90.5895 48.6293 89.8215 48.928 89.0535 48.928C88.0295 48.928 87.3042 48.5013 86.8775 47.648C86.1522 46.24 85.7895 44.9813 85.7895 43.872C85.7895 42.72 85.7682 41.9307 85.7255 41.504C85.5122 42.016 85.1068 42.8267 84.5095 43.936C83.9122 45.0027 83.2082 46.1333 82.3975 47.328C81.5868 48.48 80.7335 49.4613 79.8375 50.272C78.9415 51.0827 78.1095 51.488 77.3415 51.488ZM111.562 55.648C111.05 55.648 110.602 55.52 110.218 55.264C109.578 54.7947 109.109 54.24 108.81 53.6C108.554 53.0027 108.426 52.32 108.426 51.552C108.426 50.3147 108.703 48.9493 109.258 47.456C109.813 45.9627 110.474 44.4693 111.242 42.976C112.01 41.44 112.735 40.032 113.418 38.752C114.143 37.472 114.634 36.4053 114.89 35.552C115.146 34.784 115.274 34.208 115.274 33.824C115.274 33.3973 115.125 33.184 114.826 33.184C114.485 33.184 113.973 33.4613 113.29 34.016C112.65 34.528 112.031 35.104 111.434 35.744C110.837 36.384 110.41 36.8533 110.154 37.152C109.215 38.176 108.383 39.4133 107.658 40.864C106.975 42.3147 106.421 43.744 105.994 45.152C105.567 46.56 105.247 47.712 105.034 48.608C104.991 48.8213 104.927 49.2053 104.842 49.76C104.757 50.3147 104.565 50.5707 104.266 50.528C103.797 50.4427 103.519 50.1013 103.434 49.504C103.349 48.864 103.285 48.352 103.242 47.968C103.199 47.6267 103.178 47.3067 103.178 47.008C103.178 46.6667 103.178 46.3467 103.178 46.048C103.178 43.9147 103.37 41.9733 103.754 40.224C104.181 38.432 104.586 36.832 104.97 35.424C105.354 34.016 105.546 32.8213 105.546 31.84C105.546 30.944 105.311 30.24 104.842 29.728C104.671 29.5147 104.437 29.408 104.138 29.408C103.583 29.408 102.943 29.856 102.218 30.752C101.535 31.648 100.874 32.8427 100.234 34.336C99.6367 35.7867 99.1247 37.3867 98.698 39.136C98.314 40.8853 98.122 42.6347 98.122 44.384C98.122 44.768 98.122 45.152 98.122 45.536C98.1647 45.92 98.2073 46.2827 98.25 46.624C98.2927 46.9227 98.3567 47.4133 98.442 48.096C98.5273 48.736 98.57 49.3333 98.57 49.888C98.57 50.4427 98.506 50.848 98.378 51.104L98.314 51.168C97.9727 51.3813 97.6313 51.488 97.29 51.488C96.8633 51.488 96.522 51.3387 96.266 51.04C95.9247 50.5707 95.6687 49.9733 95.498 49.248C95.37 48.5227 95.2633 47.8613 95.178 47.264C95.0073 46.0693 94.8367 44.64 94.666 42.976C94.4953 41.2693 94.3033 39.584 94.09 37.92C93.9193 36.2133 93.6633 34.8053 93.322 33.696C93.1513 33.0987 92.938 32.5013 92.682 31.904C92.426 31.264 91.9993 30.7947 91.402 30.496C91.3593 30.4533 91.338 30.3893 91.338 30.304C91.338 30.176 91.4873 30.0907 91.786 30.048C92.1273 30.0053 92.3407 30.0267 92.426 30.112C93.066 30.2827 93.642 30.88 94.154 31.904C94.666 32.928 95.0927 34.1227 95.434 35.488C95.818 36.8107 96.138 38.0907 96.394 39.328C96.6927 40.5653 96.9273 41.4827 97.098 42.08C97.226 41.312 97.354 40.544 97.482 39.776C97.61 39.008 97.7593 38.24 97.93 37.472C98.314 35.936 98.762 34.4427 99.274 32.992C99.786 31.4987 100.511 30.24 101.45 29.216C102.431 28.1493 103.733 27.5093 105.354 27.296C105.951 27.2107 106.655 27.488 107.466 28.128C108.277 28.768 108.682 29.7493 108.682 31.072C108.682 31.2427 108.661 31.4347 108.618 31.648C108.618 31.8187 108.597 32.0107 108.554 32.224C108.511 32.4373 108.298 33.0987 107.914 34.208C107.573 35.3173 107.167 36.6187 106.698 38.112C106.229 39.5627 105.823 40.9707 105.482 42.336C106.378 40.7147 107.423 39.1147 108.618 37.536C109.855 35.9147 111.114 34.5707 112.394 33.504C112.735 33.1627 113.29 32.8213 114.058 32.48C114.869 32.1387 115.615 31.968 116.298 31.968C116.767 31.968 117.151 32.096 117.45 32.352C117.791 32.608 117.962 33.056 117.962 33.696C117.962 33.824 117.962 33.9733 117.962 34.144C117.962 34.272 117.941 34.4213 117.898 34.592C117.642 35.872 117.109 37.344 116.298 39.008C115.487 40.6293 114.613 42.2933 113.674 44C112.778 45.7067 112.01 47.2853 111.37 48.736C110.773 50.144 110.559 51.296 110.73 52.192C110.901 52.9173 111.178 53.4293 111.562 53.728C111.989 54.0267 112.415 54.176 112.842 54.176C113.439 54.176 113.887 54.0267 114.186 53.728C114.271 53.6427 114.399 53.5147 114.57 53.344C114.783 53.216 114.954 53.1307 115.082 53.088C115.21 53.088 115.21 53.28 115.082 53.664C115.039 53.8347 114.911 54.0053 114.698 54.176C114.485 54.3893 114.335 54.5387 114.25 54.624C113.439 55.3067 112.543 55.648 111.562 55.648ZM125.062 54.24C123.655 54.24 122.503 53.8133 121.607 52.96C120.753 52.1067 120.113 51.0187 119.687 49.696C119.26 48.3307 119.047 46.9013 119.047 45.408C119.047 44.512 119.132 43.6587 119.303 42.848C119.473 42.0373 119.644 41.376 119.815 40.864C119.772 40.5653 119.729 40.2667 119.687 39.968C119.687 39.6267 119.687 39.2853 119.687 38.944C119.687 37.7067 119.815 36.3627 120.071 34.912C120.327 33.4613 120.732 32.0747 121.286 30.752C121.884 29.4293 122.609 28.3627 123.463 27.552C124.359 26.6987 125.447 26.272 126.727 26.272C127.836 26.272 128.924 26.7413 129.991 27.68C131.057 28.576 131.996 29.8987 132.807 31.648C133.276 32.6293 133.596 33.696 133.767 34.848C133.98 35.9573 134.087 37.088 134.087 38.24C134.087 39.8187 133.916 41.3973 133.575 42.976C133.276 44.512 132.828 45.9627 132.231 47.328C131.804 48.3093 131.228 49.3547 130.503 50.464C129.82 51.5307 129.031 52.4267 128.135 53.152C127.239 53.8773 126.215 54.24 125.062 54.24ZM125.383 52.832C126.833 52.832 128.177 51.8293 129.415 49.824C130.311 48.416 130.951 46.816 131.335 45.024C131.719 43.1893 131.911 41.3547 131.911 39.52C131.911 38.1547 131.825 36.832 131.655 35.552C131.484 34.272 131.228 33.0347 130.887 31.84C130.588 30.7733 130.076 29.8347 129.351 29.024C128.668 28.1707 127.687 27.808 126.407 27.936C125.383 28.0213 124.487 28.5333 123.719 29.472C122.951 30.4107 122.353 31.4773 121.927 32.672C121.543 33.824 121.351 34.8267 121.351 35.68C121.351 36.1493 121.415 36.512 121.543 36.768C121.671 36.4267 121.991 35.872 122.503 35.104C123.015 34.2933 123.591 33.568 124.231 32.928C124.871 32.2453 125.468 31.904 126.023 31.904C126.492 31.904 126.727 32.096 126.727 32.48C126.172 32.5227 125.617 32.864 125.062 33.504C124.551 34.1013 124.06 34.8267 123.591 35.68C123.164 36.5333 122.801 37.3867 122.503 38.24C122.247 39.0507 122.055 39.6907 121.927 40.16C121.884 40.3307 121.82 40.544 121.735 40.8C121.649 41.056 121.607 41.312 121.607 41.568C121.607 41.8667 121.777 42.3573 122.119 43.04C122.46 43.68 123.015 44.2773 123.783 44.832C124.551 45.3867 125.596 45.664 126.919 45.664C127.303 45.664 127.708 45.6213 128.135 45.536C128.561 45.4507 128.967 45.3653 129.351 45.28L129.799 45.152C129.884 45.152 129.927 45.1947 129.927 45.28C129.927 45.408 129.777 45.5787 129.479 45.792C129.223 45.9627 128.988 46.0907 128.775 46.176C128.177 46.4747 127.516 46.624 126.791 46.624C125.724 46.624 124.7 46.304 123.719 45.664C122.78 44.9813 121.948 44.2133 121.223 43.36C121.18 43.7013 121.159 44.0427 121.159 44.384C121.159 44.6827 121.159 44.9813 121.159 45.28C121.159 47.7547 121.585 49.632 122.439 50.912C123.292 52.192 124.273 52.832 125.383 52.832ZM141.732 56.288C141.476 56.288 141.22 56.1387 140.964 55.84C140.751 55.5413 140.601 55.072 140.516 54.432C140.473 54.2613 140.452 54.0053 140.452 53.664C140.452 53.3653 140.452 53.0027 140.452 52.576C140.452 51.7227 140.452 50.8693 140.452 50.016C140.495 49.12 140.516 48.5227 140.516 48.224C140.516 46.432 140.431 44.6187 140.26 42.784C140.089 40.9493 139.748 39.4133 139.236 38.176C138.724 36.9387 137.913 36.32 136.804 36.32C136.121 36.32 135.481 36.576 134.884 37.088C134.329 37.5573 133.86 38.048 133.476 38.56C133.049 39.072 132.751 39.328 132.58 39.328C132.409 39.328 132.324 39.2427 132.324 39.072C132.324 38.8587 132.516 38.5173 132.9 38.048C133.284 37.536 133.561 37.1947 133.732 37.024C134.372 36.384 135.076 35.808 135.844 35.296C136.655 34.784 137.401 34.528 138.084 34.528C139.151 34.528 139.983 35.1253 140.58 36.32C141.177 37.472 141.604 38.944 141.86 40.736C142.116 42.4853 142.244 44.256 142.244 46.048C142.244 46.944 142.223 47.8187 142.18 48.672C142.137 49.4827 142.073 50.2293 141.988 50.912C142.372 49.8453 142.863 48.5867 143.46 47.136C144.057 45.6427 144.74 44.128 145.508 42.592C146.319 41.0133 147.172 39.5413 148.068 38.176C148.964 36.8107 149.924 35.68 150.948 34.784C151.545 34.272 151.993 34.016 152.292 34.016C152.548 34.016 152.676 34.144 152.676 34.4C152.676 34.8267 152.313 35.36 151.588 36C150.095 37.3227 148.836 38.8373 147.812 40.544C146.788 42.2507 145.956 44 145.316 45.792C144.719 47.584 144.271 49.2693 143.972 50.848C143.673 52.4267 143.481 53.728 143.396 54.752C143.353 55.0507 143.161 55.3707 142.82 55.712C142.479 56.096 142.116 56.288 141.732 56.288Z" fill="black"/>
</svg>
